solid Mesh
  facet normal 0 0 -1
    outer loop
      vertex 36 18 0
      vertex 36 0 0
      vertex -3.27822e-15 18 0
    endloop
  endfacet
  facet normal 0 0 -1
    outer loop
      vertex 36 0 0
      vertex 0 0 0
      vertex -3.27822e-15 18 0
    endloop
  endfacet
  facet normal 0 0 1
    outer loop
      vertex 36 0 1
      vertex 36 18 1
      vertex 0 0 1
    endloop
  endfacet
  facet normal 0 0 1
    outer loop
      vertex 36 18 1
      vertex -3.27822e-15 18 1
      vertex 0 0 1
    endloop
  endfacet
  facet normal 0 1 0
    outer loop
      vertex -3.27822e-15 18 1
      vertex 36 18 1
      vertex -3.27822e-15 18 0
    endloop
  endfacet
  facet normal 0 1 0
    outer loop
      vertex 36 18 1
      vertex 36 18 0
      vertex -3.27822e-15 18 0
    endloop
  endfacet
  facet normal 1 0 0
    outer loop
      vertex 36 18 1
      vertex 36 0 1
      vertex 36 18 0
    endloop
  endfacet
  facet normal 1 0 0
    outer loop
      vertex 36 0 1
      vertex 36 0 0
      vertex 36 18 0
    endloop
  endfacet
  facet normal -1 -1.82123e-16 0
    outer loop
      vertex 0 0 1
      vertex -3.27822e-15 18 1
      vertex 0 0 0
    endloop
  endfacet
  facet normal -1 -1.82123e-16 0
    outer loop
      vertex -3.27822e-15 18 1
      vertex -3.27822e-15 18 0
      vertex 0 0 0
    endloop
  endfacet
  facet normal 0 -1 0
    outer loop
      vertex 36 0 1
      vertex 0 0 1
      vertex 36 0 0
    endloop
  endfacet
  facet normal 0 -1 0
    outer loop
      vertex 0 0 1
      vertex 0 0 0
      vertex 36 0 0
    endloop
  endfacet
endsolid Mesh
